<svg width="28" height="28" viewBox="0 0 28 28" fill="none" xmlns="http://www.w3.org/2000/svg">
<path d="M8.32635 28C9.24801 28 10.319 27.7757 11.5358 27.3461C13.3442 26.7111 14.7839 25.8342 16.1862 24.9749L16.5549 24.733C18.0984 23.7792 19.5666 22.7059 20.9462 21.5226C23.8632 19.2359 26.0724 16.1523 27.3127 12.6362C27.7735 11.293 28.4199 8.64208 27.6254 6.15993C27.0416 4.34401 25.864 2.78337 24.2864 1.73503C24.102 1.58631 22.072 0 18.2162 0C14.7104 0 10.8545 1.30658 6.77584 3.91856L6.64751 4.01298L6.27768 4.25494C5.3337 4.85506 4.43345 5.52284 3.58384 6.25317C1.84901 7.87725 -0.106329 10.5837 0.00450413 12.8982C0.0406708 13.8306 0.502671 14.7088 1.25867 15.2682C2.00341 15.8271 2.91523 16.1105 3.84167 16.0708C5.94518 16.0708 8.23418 14.9519 9.80218 14.0171L10.0973 13.8318L10.9093 13.3089L11.1858 13.1225C13.4002 11.666 15.7067 10.154 18.3084 9.27707C18.8912 9.0744 19.5007 8.96102 20.1167 8.94069C20.3776 8.94286 20.6374 8.97453 20.8914 9.03511C21.2561 9.10759 21.5999 9.26269 21.8969 9.48878C22.1939 9.71486 22.4365 10.0061 22.6064 10.3405C23.2165 11.535 23.0684 13.4211 22.2377 15.1561C20.8473 17.8391 18.9029 20.1883 16.5362 22.0443C15.3832 23.0391 14.1349 23.9149 12.8098 24.6586L12.699 24.6952C12.151 25.0177 11.5769 25.2925 10.9828 25.5167L10.8895 25.5544L10.4112 25.7409C7.80951 26.4137 9.39618 24.1723 9.39618 24.1723C9.94918 23.5385 10.5395 22.959 11.1672 22.3995C11.5358 22.082 11.9057 21.7456 12.2557 21.3916L12.3303 21.3172C12.7912 20.8687 13.4189 20.2526 13.3815 19.3756C13.3267 18.2189 12.1273 17.5084 10.9828 17.4718H10.9093C9.80101 17.4718 8.78718 18.0879 8.10468 18.6285C7.37714 19.2061 6.74745 19.8998 6.24034 20.6822C5.54034 21.7456 4.08201 24.4898 5.50301 26.6745C6.07468 27.5515 7.03484 28 8.32635 28Z" fill="#192540"/>
</svg>
