<svg width="102" height="24" viewBox="0 0 102 24" fill="none" xmlns="http://www.w3.org/2000/svg">
<g clip-path="url(#clip0_53_352)">
<g clip-path="url(#clip1_53_352)">
<g clip-path="url(#clip2_53_352)">
<mask id="mask0_53_352" style="mask-type:luminance" maskUnits="userSpaceOnUse" x="0" y="0" width="102" height="24">
<path d="M101.658 0.533325H0.285522V23.9271H101.658V0.533325Z" fill="white"/>
</mask>
<g mask="url(#mask0_53_352)">
<path d="M11.6929 0.533325C5.57602 0.533325 0.617432 5.37538 0.617432 11.3485C0.617432 17.3216 5.57602 22.1637 11.6929 22.1637C17.8097 22.1637 22.7683 17.3216 22.7683 11.3485C22.7683 5.37538 17.8097 0.533325 11.6929 0.533325ZM12.6864 18.4627C12.6824 18.4627 12.6799 18.4627 12.676 18.4627C12.6566 18.4627 12.6384 18.4564 12.6242 18.4438C12.6073 18.4299 12.5982 18.4083 12.5982 18.3867V15.3825C12.5982 15.347 12.6229 15.3166 12.6579 15.309C14.1689 14.962 15.3739 13.784 15.7306 12.3073C15.7383 12.2731 15.7694 12.249 15.8057 12.249H18.881C18.903 12.249 18.9251 12.2579 18.9394 12.2744C18.9537 12.2908 18.9614 12.3123 18.9576 12.3352C18.5244 15.5192 15.9445 18.0385 12.6864 18.4627ZM18.8849 10.5163C18.8836 10.5163 18.8823 10.5163 18.881 10.5163H15.8044C15.7681 10.5163 15.737 10.4923 15.7293 10.458C15.2869 8.62152 13.6332 7.33979 11.7084 7.33979C9.42427 7.33979 7.56699 9.15354 7.56699 11.3839C7.56699 13.2635 8.8796 14.8784 10.7603 15.3103C10.7953 15.3178 10.82 15.3483 10.82 15.3837V18.388C10.82 18.4096 10.8108 18.4299 10.794 18.445C10.7797 18.4577 10.7616 18.464 10.7421 18.464C10.7382 18.464 10.7356 18.464 10.7317 18.464C7.1143 17.9916 4.38662 14.9481 4.38662 11.3852C4.38662 7.4424 7.67201 4.23422 11.7084 4.23422C15.3505 4.23422 18.4608 6.88768 18.955 10.4087C18.9601 10.4188 18.9627 10.4303 18.9627 10.4416C18.9627 10.4822 18.9277 10.5163 18.8849 10.5163Z" fill="#192540"/>
<path d="M29.1536 11.3649C29.1536 10.3619 29.3481 9.40562 29.7385 8.49621C30.1289 7.58681 30.6595 6.80155 31.3325 6.14039C32.0057 5.47925 32.8151 4.95236 33.7632 4.55973C34.7101 4.16836 35.7165 3.97205 36.7827 3.97205C37.849 3.97205 38.8489 4.16963 39.7828 4.56479C40.7167 4.95996 41.5377 5.51218 42.2433 6.22018L40.6246 7.99844C39.6233 6.85727 38.3418 6.28605 36.7815 6.28605C35.8502 6.28605 34.9967 6.51784 34.2198 6.98266C33.4429 7.44748 32.8346 8.06934 32.3949 8.84953C31.9551 9.62979 31.7347 10.4758 31.7347 11.3839C31.7347 12.2997 31.9617 13.1432 32.4143 13.9145C32.8669 14.6858 33.4818 15.2963 34.2588 15.7434C35.0356 16.1918 35.8839 16.416 36.8022 16.416C37.4766 16.416 38.146 16.2703 38.81 15.979C39.4741 15.6877 40.0409 15.3065 40.5104 14.8366L42.0318 16.6047C41.325 17.2697 40.5272 17.7902 39.6375 18.1665C38.7477 18.5425 37.8022 18.7312 36.8009 18.7312C35.4209 18.7312 34.1458 18.4095 32.9759 17.7674C31.806 17.1252 30.8773 16.2374 30.1872 15.1051C29.4985 13.9728 29.1536 12.7265 29.1536 11.3649ZM43.718 18.4767V4.21649H46.1448V10.0046C46.3821 9.8286 46.5832 9.69187 46.7465 9.59431C46.9101 9.49675 47.163 9.39926 47.5028 9.30177C47.8426 9.20421 48.2123 9.15485 48.6104 9.15485C49.1371 9.15485 49.6248 9.23334 50.0748 9.39038C50.5249 9.54741 50.9282 9.78171 51.2888 10.0958C51.6481 10.41 51.9296 10.8317 52.1319 11.3611C52.3342 11.8906 52.4354 12.5036 52.4354 13.2002V18.4767H50.0073V13.5916C50.0073 12.1514 49.3614 11.4308 48.0709 11.4308C46.7868 11.4308 46.1448 12.1388 46.1448 13.5536V18.4754H43.718V18.4767ZM54.5457 7.3677C54.2499 7.07892 54.1021 6.72553 54.1021 6.30505C54.1021 5.88455 54.2499 5.53245 54.5457 5.2462C54.8414 4.96123 55.2072 4.8181 55.6443 4.8181C56.0749 4.8181 56.4342 4.9587 56.7234 5.24113C57.0126 5.52358 57.1566 5.87821 57.1566 6.30378C57.1566 6.73059 57.0126 7.08651 56.7234 7.37152C56.4342 7.65647 56.0749 7.79963 55.6443 7.79963C55.2072 7.80086 54.8401 7.65647 54.5457 7.3677ZM54.4199 18.4767V9.32447H56.8466V18.4767H54.4199ZM59.0348 23.3491V9.32447H61.4615V10.0046C62.1748 9.43851 63.0414 9.15485 64.0621 9.15485C65.4394 9.15485 66.6108 9.61967 67.576 10.5481C68.5412 11.4764 69.0231 12.6062 69.0231 13.9373C69.0231 14.8024 68.8039 15.6029 68.3641 16.3387C67.925 17.0746 67.3237 17.6572 66.5615 18.0865C65.7987 18.5159 64.9658 18.73 64.0621 18.73C63.0414 18.73 62.1735 18.4475 61.4615 17.884V23.3491H59.0348ZM61.4628 14.0501C61.4952 14.7073 61.7624 15.2723 62.2669 15.7447C62.7715 16.2171 63.3695 16.454 64.0633 16.454C64.7703 16.454 65.3764 16.2058 65.8843 15.708C66.3916 15.2102 66.6458 14.62 66.6458 13.9386C66.6458 13.2623 66.3916 12.6758 65.8843 12.1781C65.3777 11.6803 64.7703 11.4321 64.0633 11.4321C63.3695 11.4321 62.7715 11.6702 62.2669 12.1451C61.7624 12.6214 61.4952 13.1837 61.4628 13.8348V14.0501ZM70.4113 23.3491V9.32447H72.8378V10.0046C73.5514 9.43851 74.4173 9.15485 75.4383 9.15485C76.816 9.15485 77.9868 9.61967 78.952 10.5481C79.9165 11.4764 80.3998 12.6062 80.3998 13.9373C80.3998 14.8024 80.1806 15.6029 79.7408 16.3387C79.3016 17.0746 78.7003 17.6572 77.9375 18.0865C77.1754 18.5159 76.3419 18.73 75.4383 18.73C74.4173 18.73 73.5501 18.4475 72.8378 17.884V23.3491H70.4113ZM72.8391 14.0501C72.8716 14.7073 73.1382 15.2723 73.6435 15.7447C74.1475 16.2171 74.7455 16.454 75.4396 16.454C76.1466 16.454 76.7531 16.2058 77.261 15.708C77.7682 15.2102 78.0218 14.62 78.0218 13.9386C78.0218 13.2623 77.7682 12.6758 77.261 12.1781C76.7537 11.6803 76.1466 11.4321 75.4396 11.4321C74.7455 11.4321 74.1475 11.6702 73.6435 12.1451C73.1382 12.6214 72.8716 13.1837 72.8391 13.8348V14.0501ZM81.3358 13.9893C81.3358 13.3433 81.45 12.7278 81.6783 12.1414C81.9066 11.5549 82.2257 11.0407 82.637 10.5987C83.0482 10.1567 83.5607 9.80584 84.1723 9.54495C84.7866 9.28523 85.456 9.15485 86.1805 9.15485C87.0789 9.15485 87.8917 9.37397 88.6182 9.81343C89.3427 10.2529 89.9051 10.8343 90.3034 11.5587C90.7016 12.2832 90.9008 13.0748 90.9008 13.9335C90.9008 14.2033 90.8807 14.4541 90.8424 14.6858H83.6956C83.8363 15.2595 84.136 15.7181 84.5959 16.0613C85.0545 16.4045 85.624 16.5756 86.3051 16.5756C86.7546 16.5756 87.184 16.492 87.5959 16.3236C88.0071 16.1551 88.3444 15.9018 88.6071 15.5649L90.2631 16.8492C89.8389 17.4355 89.2778 17.894 88.578 18.2285C87.8774 18.5616 87.1269 18.7287 86.3232 18.7287C85.3983 18.7287 84.5537 18.5223 83.7896 18.1081C83.0262 17.6939 82.4249 17.124 81.9883 16.3957C81.5557 15.67 81.3358 14.867 81.3358 13.9893ZM83.7838 12.9456H88.4547C88.3853 12.4821 88.131 12.0932 87.6938 11.7791C87.2573 11.4663 86.7475 11.3093 86.1624 11.3093C85.6033 11.3093 85.1129 11.4587 84.6893 11.7563C84.2651 12.054 83.9622 12.4504 83.7838 12.9456ZM92.4102 18.4767V9.32447H94.8368V10.0046C95.2856 9.67792 95.7695 9.45368 96.2871 9.33472C96.8048 9.21557 97.5215 9.15485 98.44 9.15485V11.4308C97.8303 11.4308 97.3081 11.465 96.8742 11.5347C96.4415 11.603 96.0926 11.6994 95.8292 11.8209C95.5658 11.9425 95.3609 12.1109 95.2123 12.3237C95.0657 12.5365 94.9645 12.7607 94.9146 12.995C94.8627 13.2294 94.8381 13.5169 94.8381 13.855V18.4767H92.4102ZM98.44 5.51471C98.44 5.33993 98.475 5.17274 98.5444 5.01442C98.6158 4.8561 98.7092 4.71931 98.8266 4.60533C98.9447 4.49134 99.0848 4.40014 99.2463 4.33301C99.4104 4.26589 99.5803 4.23169 99.7581 4.23169C99.9358 4.23169 100.105 4.26589 100.268 4.33301C100.43 4.40141 100.569 4.4926 100.684 4.60659C100.802 4.72059 100.895 4.85863 100.964 5.01695C101.033 5.17528 101.068 5.33993 101.068 5.51218C101.068 5.68443 101.033 5.84909 100.964 6.00868C100.894 6.16825 100.802 6.30505 100.684 6.42031C100.567 6.53554 100.427 6.62674 100.265 6.69641C100.103 6.76484 99.9325 6.79903 99.7542 6.79903C99.5161 6.79903 99.2982 6.74201 99.0951 6.62804C98.8941 6.51401 98.7332 6.35824 98.6158 6.16066C98.4984 5.96307 98.44 5.74776 98.44 5.51471ZM98.6878 5.51471C98.6878 5.65404 98.715 5.78575 98.7702 5.91242C98.8266 6.03908 98.9018 6.148 98.9972 6.24045C99.0913 6.33291 99.2041 6.40637 99.3364 6.4621C99.4688 6.51654 99.6076 6.54443 99.7555 6.54443C99.9494 6.54443 100.13 6.4976 100.293 6.40511C100.457 6.31266 100.587 6.18726 100.68 6.02893C100.774 5.87189 100.822 5.69963 100.822 5.51345C100.822 5.32474 100.774 5.14867 100.68 4.98782C100.587 4.82697 100.457 4.69778 100.291 4.60279C100.126 4.5078 99.9455 4.45967 99.7516 4.45967C99.5563 4.45967 99.3773 4.5078 99.2138 4.60279C99.051 4.69778 98.9226 4.82571 98.8285 4.98782C98.7345 5.14867 98.6878 5.32474 98.6878 5.51471ZM99.2391 6.24172V4.78011H99.6958C99.7529 4.78011 99.8022 4.78138 99.8424 4.78264C99.8826 4.78391 99.9274 4.78898 99.978 4.79531C100.03 4.80164 100.072 4.81051 100.105 4.82191C100.14 4.83331 100.175 4.8485 100.211 4.87003C100.246 4.89031 100.274 4.91563 100.296 4.94349C100.318 4.97136 100.335 5.00683 100.35 5.04989C100.363 5.09296 100.37 5.14108 100.37 5.19427C100.37 5.42985 100.246 5.57425 99.9994 5.62997L100.37 6.24552H100.071L99.7127 5.65024H99.4889V6.24298H99.2391V6.24172ZM99.4889 5.43112H99.762C99.8151 5.43112 99.8612 5.42859 99.8995 5.42352C99.9364 5.41846 99.9728 5.40959 100.008 5.39439C100.042 5.38046 100.068 5.35766 100.086 5.32726C100.104 5.29687 100.114 5.25887 100.114 5.21201C100.114 5.12842 100.085 5.07141 100.027 5.04356C99.9676 5.01569 99.8794 5.00049 99.762 5.00049H99.4889V5.43112Z" fill="#192540"/>
</g>
</g>
</g>
</g>
<defs>
<clipPath id="clip0_53_352">
<rect width="101.84" height="24" fill="white"/>
</clipPath>
<clipPath id="clip1_53_352">
<rect width="101.84" height="24" fill="white"/>
</clipPath>
<clipPath id="clip2_53_352">
<rect width="101.838" height="24" fill="white" transform="translate(0.00109863)"/>
</clipPath>
</defs>
</svg>
