<svg width="58" height="24" viewBox="0 0 58 24" fill="none" xmlns="http://www.w3.org/2000/svg">
<g clip-path="url(#clip0_53_340)">
<mask id="mask0_53_340" style="mask-type:luminance" maskUnits="userSpaceOnUse" x="0" y="0" width="58" height="24">
<path d="M57.1479 0.533325H0.189209V23.9271H57.1479V0.533325Z" fill="white"/>
</mask>
<g mask="url(#mask0_53_340)">
<path d="M28.5748 23.9271C44.2503 23.9271 56.9566 18.6891 56.9566 12.2321C56.9566 5.77128 44.2503 0.533325 28.5748 0.533325C12.8993 0.533325 0.189209 5.77128 0.189209 12.2321C0.189209 18.6891 12.8993 23.9271 28.5748 23.9271Z" fill="#192540"/>
<path d="M35.6774 9.34643L36.4207 6.38275H26.7305L25.9911 9.34643H29.1628L27.6061 15.5736H30.9451L32.5018 9.34643H35.6774Z" fill="white"/>
<path d="M25.8976 6.38275H21.0642L17.9859 13.1941V6.38275H13.3043L10.3739 18.0776H13.5922L15.4992 10.5303V18.0776H17.9859L21.6479 10.5303L19.8928 18.0776H22.9672L25.8976 6.38275Z" fill="white"/>
<path d="M46.7724 6.38275H43.698L42.0908 12.606L40.6236 6.38275H37.2534L34.3269 18.0776H37.4052L39.0124 11.7142L40.6236 18.0776H43.8459L46.7724 6.38275Z" fill="white"/>
<path d="M27.396 16.407L26.9757 18.0777H30.3186L30.735 16.407H27.396Z" fill="white"/>
</g>
</g>
<defs>
<clipPath id="clip0_53_340">
<rect width="57.728" height="24" fill="white"/>
</clipPath>
</defs>
</svg>
